<?xml version="1.0" standalone="no"?>
<!DOCTYPE svg PUBLIC "-//W3C//DTD SVG 20010904//EN"
 "http://www.w3.org/TR/2001/REC-SVG-20010904/DTD/svg10.dtd">
<svg version="1.0" xmlns="http://www.w3.org/2000/svg"
 width="564.000000pt" height="564.000000pt" viewBox="0 0 564.000000 564.000000"
 preserveAspectRatio="xMidYMid meet">
<metadata>
Created by potrace 1.11, written by Peter Selinger 2001-2013
</metadata>
<g transform="translate(0.000000,564.000000) scale(0.100000,-0.100000)"
fill="#000000" stroke="none">
<path d="M2538 5135 c-2 -2 -32 -6 -68 -9 -114 -10 -256 -36 -365 -67 -38 -11
-77 -22 -85 -24 -93 -22 -391 -154 -473 -209 -21 -14 -41 -26 -45 -26 -10 0
-194 -131 -257 -183 -101 -84 -258 -238 -293 -289 -9 -12 -24 -30 -33 -38 -9
-8 -46 -58 -83 -110 -36 -52 -71 -100 -76 -107 -6 -7 -10 -15 -10 -19 0 -3
-13 -25 -28 -48 -66 -98 -201 -406 -227 -516 -2 -8 -12 -51 -24 -95 -11 -44
-22 -91 -25 -105 -2 -14 -9 -52 -15 -85 -19 -113 -25 -200 -25 -380 1 -181 4
-226 28 -382 10 -66 38 -184 62 -263 15 -47 27 -89 28 -95 1 -5 8 -20 14 -33
7 -12 11 -22 8 -22 -6 0 24 -70 79 -185 24 -49 44 -94 44 -99 -1 -5 4 -12 9
-15 5 -3 22 -30 37 -59 15 -29 31 -55 36 -58 5 -2 16 -20 25 -39 9 -19 20 -35
25 -35 5 0 9 -4 9 -10 0 -13 78 -116 150 -199 120 -140 291 -295 420 -381 36
-25 67 -47 70 -50 3 -4 12 -9 20 -13 8 -4 33 -18 55 -32 22 -14 69 -39 105
-57 36 -18 66 -36 68 -40 2 -5 12 -8 23 -8 10 0 19 -4 19 -9 0 -5 12 -12 28
-15 15 -4 41 -13 57 -20 102 -47 282 -104 375 -120 8 -2 33 -7 55 -12 22 -4
42 -9 45 -9 18 -4 93 -16 135 -22 62 -8 462 -8 530 0 93 12 127 17 198 32 79
16 250 62 282 75 11 4 36 14 55 20 39 15 72 28 145 61 28 12 56 23 63 25 7 1
19 7 26 13 7 6 44 28 82 48 91 48 264 164 345 231 97 81 259 238 259 252 0 5
4 10 9 12 31 11 234 298 297 418 16 30 31 57 35 60 3 3 13 23 22 45 9 22 36
89 61 149 25 59 48 122 52 140 3 17 9 36 12 41 4 6 7 15 9 20 1 6 9 39 18 75
9 36 19 76 21 90 3 14 9 44 15 67 5 24 8 46 7 50 -1 5 2 19 5 33 13 50 19 148
20 315 1 161 -2 211 -18 347 -7 55 -6 59 37 125 40 60 57 91 90 156 20 40 71
198 70 214 0 2 5 24 12 50 14 52 15 318 2 391 -5 24 -20 82 -35 129 l-26 85
-25 -24 c-14 -13 -59 -62 -100 -108 -41 -47 -85 -96 -97 -109 -12 -13 -48 -55
-80 -92 -32 -37 -63 -68 -69 -68 -7 -1 -19 15 -28 34 -9 19 -21 37 -26 40 -6
4 -8 11 -5 16 4 5 1 9 -4 9 -6 0 -11 4 -11 9 0 12 -81 135 -92 139 -4 2 -8 10
-8 17 0 7 -3 15 -8 17 -4 2 -23 23 -42 48 -90 116 -263 286 -420 413 l-22 19
28 31 c16 17 34 36 39 42 33 39 146 165 177 199 20 22 35 42 34 44 -5 4 -45
13 -131 26 -80 13 -249 13 -315 1 -108 -19 -125 -23 -125 -25 0 -1 -9 -4 -47
-13 -7 -2 -34 -11 -59 -21 l-47 -18 -118 45 c-100 38 -154 56 -219 73 -5 1
-35 9 -65 17 -53 14 -114 27 -155 32 -22 3 -95 15 -135 21 -30 5 -417 13 -422
9z"/>
</g>
</svg>
